<?xml version="1.0" encoding="UTF-8"?> <svg xmlns="http://www.w3.org/2000/svg" width="60" height="60" viewBox="0 0 60 60" fill="none"> <g clip-path="url(#clip0)"> <path d="M55.7307 45.4489L52.2713 44.1897L55.7283 42.9313C55.7291 42.9311 55.7298 42.9309 55.7307 42.9305C57.1947 42.3976 58.242 41.0196 58.6042 39.15C58.9094 37.5747 58.7235 35.7346 58.0809 33.9688C57.4382 32.203 56.3978 30.674 55.1514 29.6634C53.6722 28.4639 51.9842 28.0817 50.5202 28.6145L46.5609 30.0556C46.632 28.8316 46.4555 27.6496 46.0203 26.5615C44.7521 23.3909 44.6008 20.6625 45.5831 18.6714C46.2711 17.2767 47.2811 16.6736 47.4058 16.6032C48.0493 16.2945 48.421 15.6374 48.3783 14.9241C48.3354 14.2071 47.8389 13.5992 47.1576 13.3719C43.9545 12.3044 40.6861 12.6401 37.7055 14.3434C37.5368 14.4398 37.3738 14.5377 37.2164 14.6367C36.8412 11.4313 35.6452 8.65632 33.6414 6.35522C28.6584 0.632841 20.5009 0.0269818 20.1562 0.00401307C19.4092 -0.0466119 18.7116 0.385693 18.4205 1.07698C18.1294 1.76827 18.3104 2.56913 18.869 3.06964C18.9135 3.10948 23.3187 7.10663 23.4426 11.6188C23.4832 13.1014 23.06 14.4698 22.1543 15.7656C20.6589 14.5267 17.9852 12.9151 13.6877 12.1988C12.9829 12.0815 12.2779 12.4017 11.9029 13.0094C11.5278 13.617 11.5577 14.3911 11.9782 14.9682C12.0191 15.0243 16.0451 20.6351 13.9966 25.4151C13.3641 26.8908 13.0848 28.4217 13.1523 29.9509L9.48027 28.6144C8.01648 28.0816 6.3284 28.4638 4.84902 29.6632C3.60262 30.6739 2.56234 32.2029 1.91957 33.9687C1.27691 35.7345 1.09105 37.5746 1.39621 39.1499C1.75844 41.0196 2.80574 42.3975 4.26976 42.9305C4.27105 42.931 4.27223 42.9313 4.27351 42.9318L7.72914 44.1896L4.26976 45.4487C2.80574 45.9816 1.75844 47.3596 1.39621 49.2292C1.09105 50.8046 1.27691 52.6445 1.91957 54.4104C2.56223 56.1763 3.60262 57.7053 4.84902 58.7159C5.89058 59.5607 7.03562 60 8.13332 60C8.59434 60 9.04715 59.9225 9.48016 59.7648L30.0002 52.296L50.5202 59.7648C50.9533 59.9225 51.4059 60 51.867 60C52.9646 60 54.1098 59.5606 55.1514 58.716C56.3977 57.7054 57.4381 56.1763 58.0807 54.4105C58.7234 52.6448 58.9093 50.8047 58.6041 49.2293C58.242 47.3597 57.1947 45.9817 55.7307 45.4489ZM51.0981 33.0637C51.2144 32.4637 51.4594 32.014 51.7226 31.9183C51.7684 31.9016 51.8206 31.8935 51.8782 31.8935C52.1516 31.8935 52.5452 32.0764 52.9374 32.3944C53.6849 33.0006 54.3557 34.0128 54.7774 35.1714C55.6476 37.5624 55.1107 39.415 54.5284 39.627L54.5282 39.6271C53.945 39.8387 52.3438 38.7646 51.4738 36.374C51.052 35.2151 50.9151 34.0087 51.0981 33.0637ZM44.4119 35.9479C44.799 35.3761 45.1345 34.7959 45.419 34.2126L47.5186 33.4483C47.4441 34.761 47.6658 36.1912 48.1698 37.5762C48.674 38.9612 49.4234 40.1992 50.3242 41.157L47.1317 42.319L40.54 39.9198C42.1834 38.7098 43.4888 37.3112 44.4119 35.9479ZM16.8625 16.6916C19.5984 17.7923 20.6785 19.1844 20.7963 19.3449C21.0805 19.7936 21.5392 20.0683 22.0677 20.1286C22.5998 20.1891 23.1168 19.9819 23.4957 19.603C25.8798 17.2189 27.0441 14.4933 26.9562 11.5021C26.8788 8.86737 25.8173 6.46468 24.6265 4.57667C25.5336 4.89577 26.497 5.3078 27.4439 5.83831C32.0519 8.41995 34.1839 12.5908 33.7807 18.2348C33.7259 19.0025 34.1768 19.7165 34.8936 19.997C35.6104 20.2777 36.426 20.0592 36.9067 19.4582C36.9357 19.422 39.2434 16.5981 42.8829 16.3056C42.7744 16.4785 42.6682 16.6605 42.5662 16.8515C41.466 18.9095 40.6059 22.4912 42.7563 27.8673C43.4262 29.5423 42.9569 31.8262 41.5009 33.9768C40.5755 35.3438 39.1597 36.755 37.3202 37.8505C37.5134 37.1812 37.6176 36.4743 37.6176 35.7434C37.6176 33.4255 36.5218 30.716 34.3605 27.6901C32.8287 25.5456 31.3074 24.0171 31.2433 23.9532C30.9136 23.6235 30.4666 23.4382 30.0004 23.4382C29.5342 23.4382 29.0872 23.6235 28.7575 23.9532C28.6935 24.0171 27.1722 25.5455 25.6403 27.6901C23.4788 30.716 22.383 33.4255 22.383 35.7434C22.383 36.494 22.4935 37.2189 22.6967 37.9041C20.7781 36.848 19.1304 35.4171 18.033 33.753C16.9865 32.1659 15.9972 29.6712 17.2277 26.8001C18.7896 23.1558 17.9571 19.3862 16.8625 16.6916ZM34.1017 35.7434C34.1017 38.005 32.2618 39.8451 30.0002 39.8451C27.7386 39.8451 25.8986 38.005 25.8986 35.7434C25.8986 33.2121 28.2605 29.8587 30.0002 27.8052C31.7402 29.8591 34.1017 33.212 34.1017 35.7434ZM5.47281 39.6272L5.47211 39.627C4.8898 39.4149 4.35297 37.5624 5.2232 35.1713C5.64496 34.0126 6.31562 33.0005 7.06316 32.3943C7.53789 32.0093 8.01461 31.8222 8.27793 31.9183C8.54102 32.014 8.78617 32.4635 8.90242 33.0637C9.08547 34.0087 8.94859 35.2151 8.52695 36.3737C7.65672 38.764 6.05535 39.8378 5.47281 39.6272ZM8.2777 56.4612C8.01438 56.5569 7.53777 56.3701 7.06305 55.9852C6.31551 55.379 5.64473 54.3668 5.22309 53.2081C4.35297 50.8171 4.8898 48.9645 5.47211 48.7525L12.8685 46.0603L24.8608 50.4252L8.2777 56.4612ZM54.7772 53.2081C54.3555 54.3667 53.6848 55.379 52.9373 55.9852C52.4625 56.3701 51.9858 56.5569 51.7226 56.4612L9.67598 41.157C10.5769 40.1992 11.3263 38.9612 11.8305 37.5762C12.3345 36.1913 12.5562 34.7611 12.4817 33.4483L14.19 34.0701C14.4463 34.6177 14.7486 35.1582 15.0981 35.6883C18.1241 40.2774 24.1128 43.3607 30.0003 43.3607C32.379 43.3607 34.5375 42.9088 36.445 42.1705L54.5283 48.7525C55.1105 48.9645 55.6474 50.8171 54.7772 53.2081Z" fill="url(#paint0_linear)"></path> </g> <defs> <linearGradient id="paint0_linear" x1="-4.77797" y1="28.8" x2="61.5619" y2="28.8" gradientUnits="userSpaceOnUse"> <stop stop-color="#0066C6"></stop> <stop offset="0.520833" stop-color="#24A7A9"></stop> <stop offset="1" stop-color="#78CC46"></stop> </linearGradient> <clipPath id="clip0"> <rect width="60" height="60" fill="white"></rect> </clipPath> </defs> </svg> 